<svg width="25" height="25" viewBox="0 0 25 25" fill="none" xmlns="http://www.w3.org/2000/svg">
<path d="M4.32215 3.25669L12.4557 11.3799L20.5029 3.33825C21.0513 2.85011 21.6189 3.14155 21.8457 3.38622C21.9912 3.5634 22.0663 3.78796 22.0565 4.01696C22.0468 4.24596 21.9529 4.46334 21.7929 4.62755L13.7445 12.668L21.7929 20.706C22.1505 21.0059 22.1505 21.5935 21.8637 21.9222C21.5757 22.2496 21.0477 22.4391 20.5497 22.0505L12.4557 13.9561L4.35215 22.0541C3.99695 22.3719 3.41135 22.3071 3.12215 21.9917C2.83175 21.6751 2.72135 21.1282 3.09215 20.742L11.1669 12.668L3.12575 4.62755C2.83175 4.30372 2.72975 3.71124 3.12575 3.33825C3.52175 2.96525 4.11215 3.01682 4.32215 3.25669Z" fill="#27272A"/>
</svg>
