<svg width="25" height="24" viewBox="0 0 25 24" fill="none" xmlns="http://www.w3.org/2000/svg">
<path d="M8.86055 0.788944C6.46258 1.62082 4.39457 3.19976 2.96029 5.29382C1.526 7.38789 0.801037 9.88671 0.891883 12.4233C0.982728 14.9598 1.88459 17.4004 3.46501 19.3864C5.04543 21.3725 7.22109 22.7995 9.67243 23.4577C11.6598 23.9705 13.7419 23.993 15.7399 23.5233C17.5499 23.1168 19.2233 22.2471 20.5962 20.9996C22.0251 19.6615 23.0622 17.9592 23.5962 16.0758C24.1763 14.0277 24.2796 11.8738 23.8981 9.77957H12.7381V14.4089H19.2012C19.072 15.1473 18.7952 15.852 18.3873 16.4809C17.9795 17.1098 17.4489 17.6499 16.8274 18.0689C16.0383 18.5912 15.1486 18.9425 14.2156 19.1002C13.2798 19.2742 12.32 19.2742 11.3843 19.1002C10.4358 18.9043 9.53863 18.5129 8.74993 17.9508C7.48271 17.0538 6.5312 15.7794 6.03118 14.3096C5.52285 12.8122 5.52285 11.1889 6.03118 9.69144C6.3871 8.64185 6.97549 7.6862 7.75243 6.89582C8.64154 5.97472 9.76718 5.31631 11.0058 4.99284C12.2445 4.66936 13.5484 4.69331 14.7743 5.06207C15.7321 5.35593 16.6079 5.86959 17.3318 6.56207C18.0606 5.83707 18.7881 5.11019 19.5143 4.38144C19.8893 3.98957 20.2981 3.61644 20.6674 3.21519C19.5622 2.18679 18.2649 1.38651 16.8499 0.860194C14.2731 -0.0754498 11.4536 -0.100594 8.86055 0.788944Z" fill="black"/>
<path d="M8.8607 0.789855C11.4536 -0.100288 14.2731 -0.0758051 16.8501 0.85923C18.2653 1.38913 19.562 2.19326 20.6657 3.22548C20.2907 3.62673 19.8951 4.00173 19.5126 4.39173C18.7851 5.11798 18.0582 5.84173 17.332 6.56298C16.608 5.8705 15.7322 5.35684 14.7745 5.06298C13.5489 4.69293 12.2451 4.66759 11.0061 4.98975C9.76712 5.3119 8.64079 5.9691 7.7507 6.88923C6.97377 7.67961 6.38538 8.63526 6.02945 9.68486L2.14258 6.67548C3.53384 3.91653 5.94273 1.80615 8.8607 0.789855Z" fill="#E33629"/>
<path d="M1.11116 9.65605C1.31992 8.62063 1.66677 7.61792 2.14241 6.6748L6.02928 9.69168C5.52095 11.1891 5.52095 12.8124 6.02928 14.3098C4.73428 15.3098 3.43866 16.3148 2.14241 17.3248C0.952064 14.9554 0.589031 12.2557 1.11116 9.65605Z" fill="#F8BD00"/>
<path d="M12.7381 9.77832H23.8981C24.2797 11.8726 24.1764 14.0264 23.5963 16.0746C23.0623 17.958 22.0252 19.6602 20.5963 20.9983C19.3419 20.0196 18.0819 19.0483 16.8275 18.0696C17.4494 17.6501 17.9802 17.1094 18.3881 16.4798C18.796 15.8503 19.0726 15.1448 19.2013 14.4058H12.7381C12.7363 12.8646 12.7381 11.3214 12.7381 9.77832Z" fill="#587DBD"/>
<path d="M2.14062 17.3246C3.43687 16.3246 4.7325 15.3196 6.0275 14.3096C6.52851 15.7799 7.48138 17.0544 8.75 17.9508C9.54116 18.5103 10.4403 18.8985 11.39 19.0908C12.3257 19.2649 13.2855 19.2649 14.2213 19.0908C15.1543 18.9331 16.044 18.5818 16.8331 18.0596C18.0875 19.0383 19.3475 20.0096 20.6019 20.9883C19.2292 22.2366 17.5558 23.1068 15.7456 23.5139C13.7476 23.9836 11.6655 23.9611 9.67813 23.4483C8.10632 23.0286 6.63814 22.2888 5.36563 21.2752C4.01886 20.2057 2.91882 18.8582 2.14062 17.3246Z" fill="#319F43"/>
</svg>
