<svg width="53" height="53" viewBox="0 0 53 53" fill="none" xmlns="http://www.w3.org/2000/svg">
<path d="M45.2705 22.5029H38.8884C33.6547 22.5029 29.3926 18.2408 29.3926 13.0071V6.625C29.3926 5.41042 28.3988 4.41667 27.1843 4.41667H17.8209C11.0193 4.41667 5.52051 8.83333 5.52051 16.7171V36.2829C5.52051 44.1667 11.0193 48.5833 17.8209 48.5833H35.1784C41.9801 48.5833 47.4788 44.1667 47.4788 36.2829V24.7112C47.4788 23.4967 46.4851 22.5029 45.2705 22.5029ZM25.4618 29.8787C25.1305 30.21 24.7109 30.3646 24.2913 30.3646C23.8718 30.3646 23.4522 30.21 23.1209 29.8787L21.5309 28.2888V37.5417C21.5309 38.4471 20.7801 39.1979 19.8747 39.1979C18.9693 39.1979 18.2184 38.4471 18.2184 37.5417V28.2888L16.6284 29.8787C15.988 30.5192 14.928 30.5192 14.2876 29.8787C13.6472 29.2383 13.6472 28.1783 14.2876 27.5379L18.7043 23.1213C18.8588 22.9887 19.0134 22.8783 19.1901 22.79C19.2343 22.7679 19.3005 22.7458 19.3447 22.7237C19.4772 22.6796 19.6097 22.6575 19.7643 22.6354C19.8305 22.6354 19.8747 22.6354 19.9409 22.6354C20.1176 22.6354 20.2943 22.6796 20.4709 22.7458C20.493 22.7458 20.493 22.7458 20.5151 22.7458C20.6918 22.8121 20.8684 22.9446 21.0009 23.0771C21.023 23.0992 21.0451 23.0992 21.0451 23.1213L25.4618 27.5379C26.1022 28.1783 26.1022 29.2383 25.4618 29.8787Z" fill="#52525B"/>
<path d="M38.4909 19.4554C40.5888 19.4775 43.5038 19.4775 45.9992 19.4775C47.258 19.4775 47.9205 17.9979 47.0371 17.1146C43.8571 13.9125 38.1596 8.14875 34.8913 4.88042C33.9859 3.975 32.418 4.59333 32.418 5.85208V13.5592C32.418 16.7833 35.1563 19.4554 38.4909 19.4554Z" fill="#52525B"/>
</svg>
