<svg width="208" height="103" viewBox="0 0 208 103" fill="none" xmlns="http://www.w3.org/2000/svg">
<mask id="mask0_1506_14415" style="mask-type:luminance" maskUnits="userSpaceOnUse" x="10" y="5" width="136" height="93">
<path d="M10.6729 5.14844H145.982V97.776H10.6729V5.14844Z" fill="white"/>
</mask>
<g mask="url(#mask0_1506_14415)">
<path d="M302.733 92.5896C304.188 92.5896 305.367 93.7581 305.367 95.1982C305.367 96.6388 304.188 97.8069 302.733 97.8069H32.2777C29.6739 97.8069 27.3055 96.7524 25.5924 95.0557C23.8793 93.3583 22.8145 91.0139 22.8145 88.4347V55.4824H18.1214C16.2883 55.4824 14.7796 55.0058 13.6017 54.2171C12.2982 53.3442 11.4337 52.1097 10.9997 50.7067L10.9964 50.7083C10.5942 49.4063 10.581 47.971 10.9431 46.5793C11.3733 44.9179 12.3405 43.2986 13.8099 42.0441L54.1335 7.61745C56.0649 5.97144 58.5673 5.14844 61.0424 5.14844C63.5185 5.14844 66.0209 5.97144 67.9499 7.61745L95.0495 30.832C96.1467 31.7706 96.2658 33.4137 95.318 34.4995C94.3693 35.5861 92.7105 35.7048 91.6138 34.7654L64.5145 11.5518C63.5874 10.7618 62.3278 10.3656 61.0426 10.3656C59.7581 10.3656 58.4961 10.7618 57.5691 11.5518L17.2455 45.9784C16.6112 46.52 16.1996 47.1923 16.0261 47.8627C15.9038 48.334 15.8999 48.7923 16.0182 49.1785L16.0151 49.1793L16.0182 49.1892C16.1051 49.4682 16.2805 49.7187 16.5444 49.8951C16.888 50.1257 17.4078 50.2643 18.1214 50.2643H25.4482C26.9021 50.2643 28.0821 51.433 28.0821 52.8738V88.4347C28.0821 89.574 28.5557 90.6142 29.3162 91.3675C30.077 92.1207 31.1261 92.5898 32.2775 92.5898H302.733V92.5896Z" fill="#FF2200"/>
</g>
<path d="M56.1796 57.1855C59.5791 57.1855 62.7501 58.0486 65.6926 59.7747L63.1649 64.5277C60.3076 63 57.8794 62.236 55.8799 62.236C54.3656 62.236 53.6086 62.7594 53.6086 63.8062C53.6086 64.3722 54.0227 64.8461 54.8511 65.2281C55.6799 65.6102 56.694 65.9569 57.8936 66.2681C59.0936 66.5795 60.2862 66.9685 61.4715 67.4354C62.6572 67.902 63.6642 68.6446 64.4927 69.6632C65.3215 70.6819 65.7359 71.9268 65.7359 73.3979C65.7359 75.6895 64.8358 77.4789 63.0357 78.7662C61.236 80.0536 58.8936 80.6972 56.0085 80.6972C51.9229 80.6972 48.4662 79.6223 45.6384 77.4722L47.9951 72.8037C50.7087 74.6996 53.437 75.6474 56.1796 75.6474C57.8651 75.6474 58.708 75.124 58.708 74.0772C58.708 73.4828 58.3008 72.9875 57.4868 72.5913C56.6725 72.1952 55.6796 71.8418 54.5082 71.5308C53.3371 71.2196 52.1657 70.8305 50.9943 70.3635C49.8232 69.8966 48.8304 69.1682 48.0164 68.178C47.2021 67.1875 46.7951 65.9426 46.7951 64.4433C46.7951 62.1514 47.6662 60.3688 49.4088 59.0954C51.1516 57.8223 53.4086 57.1855 56.1796 57.1855Z" fill="#FF2200"/>
<path d="M90.3747 57.5254V80.4006H82.9613V76.6237C81.3902 79.3395 78.8906 80.6974 75.4626 80.6974C72.9486 80.6974 70.9415 79.9055 69.4416 78.3212C67.9419 76.7367 67.1921 74.6148 67.1921 71.9551V57.5254H74.6056V69.8757C74.6056 71.2339 74.9554 72.3021 75.6551 73.0802C76.355 73.858 77.2907 74.2469 78.4618 74.2469C79.8614 74.2188 80.9614 73.7027 81.7613 72.6983C82.5613 71.6937 82.9613 70.3991 82.9613 68.8146V57.5254H90.3747Z" fill="#FF2200"/>
<path d="M109.4 57.1855C111.942 57.1855 113.985 57.985 115.528 59.5835C117.07 61.1821 117.842 63.3112 117.842 65.9707V80.4004H110.471V68.0078C110.471 66.6783 110.107 65.6245 109.378 64.8462C108.65 64.0681 107.657 63.6789 106.4 63.6789C105.086 63.6789 104.008 64.1035 103.165 64.9524C102.322 65.801 101.829 66.9186 101.686 68.3053V80.4004H94.2729V57.5252H101.686V61.2599C103.315 58.6004 105.886 57.2424 109.4 57.1855Z" fill="#FF2200"/>
<path d="M135.625 57.2706C138.881 57.2706 141.502 58.3528 143.488 60.5173C145.473 62.6817 146.466 65.5323 146.466 69.0689C146.466 72.5489 145.495 75.35 143.552 77.4722C141.609 79.5941 139.024 80.655 135.796 80.655C132.768 80.655 130.411 79.5516 128.725 77.3449V80.4004H121.312V48.9102H128.725V60.5384C130.439 58.36 132.739 57.2706 135.625 57.2706ZM133.825 74.8408C135.367 74.8408 136.617 74.282 137.574 73.1644C138.531 72.0468 139.009 70.611 139.009 68.8566C139.009 67.1024 138.531 65.6737 137.574 64.5705C136.617 63.467 135.367 62.9152 133.825 62.9152C132.339 62.9152 131.118 63.467 130.161 64.5705C129.204 65.6737 128.725 67.1024 128.725 68.8566C128.725 70.639 129.196 72.082 130.139 73.1855C131.082 74.2892 132.31 74.8408 133.825 74.8408Z" fill="#FF2200"/>
<path d="M163.563 57.1855C166.105 57.1855 168.148 57.985 169.691 59.5835C171.233 61.1821 172.005 63.3112 172.005 65.9707V80.4004H164.634V68.0078C164.634 66.6783 164.27 65.6245 163.541 64.8462C162.813 64.0681 161.82 63.6789 160.563 63.6789C159.249 63.6789 158.17 64.1035 157.328 64.9524C156.485 65.801 155.992 66.9186 155.849 68.3053V80.4004H148.436V57.5252H155.849V61.2599C157.478 58.6004 160.049 57.2424 163.563 57.1855Z" fill="#FF2200"/>
<path d="M189.787 57.2706C193.044 57.2706 195.665 58.3528 197.65 60.5173C199.636 62.6817 200.629 65.5323 200.629 69.0689C200.629 72.5489 199.657 75.35 197.715 77.4722C195.772 79.5941 193.187 80.655 189.958 80.655C186.93 80.655 184.573 79.5516 182.888 77.3449V80.4004H175.474V48.9102H182.888V60.5384C184.602 58.36 186.902 57.2706 189.787 57.2706ZM187.987 74.8408C189.53 74.8408 190.78 74.282 191.736 73.1644C192.693 72.0468 193.172 70.611 193.172 68.8566C193.172 67.1024 192.693 65.6737 191.736 64.5705C190.78 63.467 189.53 62.9152 187.987 62.9152C186.502 62.9152 185.28 63.467 184.323 64.5705C183.366 65.6737 182.888 67.1024 182.888 68.8566C182.888 70.639 183.359 72.082 184.302 73.1855C185.244 74.2892 186.473 74.8408 187.987 74.8408Z" fill="#FF2200"/>
<path d="M62.3368 37.3257L62.4334 41.9086H58.2881L58.3841 37.3257L54.4319 39.6646L52.3586 36.1323L56.3597 33.8884L52.3586 31.7401L54.4319 28.0637L58.3364 30.4511L58.2881 25.916H62.4334L62.3851 30.4511L66.3379 28.1593L68.4105 31.7401L64.3136 33.8884L68.4105 36.1323L66.3379 39.7602L62.3368 37.3257Z" fill="#FF2200"/>
</svg>
