<svg width="567" height="284" viewBox="0 0 567 284" fill="none" xmlns="http://www.w3.org/2000/svg">
<mask id="mask0_1506_12495" style="mask-type:luminance" maskUnits="userSpaceOnUse" x="29" y="14" width="369" height="256">
<path d="M29.0938 14.1946H397.942V269.595H29.0938V14.1946Z" fill="white"/>
</mask>
<g mask="url(#mask0_1506_12495)">
<path d="M825.239 255.295C829.204 255.295 832.419 258.516 832.419 262.487C832.419 266.459 829.204 269.68 825.239 269.68H87.9878C80.89 269.68 74.4339 266.773 69.7641 262.094C65.0943 257.414 62.1916 250.95 62.1916 243.838V152.979H49.3985C44.4015 152.979 40.2888 151.666 37.078 149.491C33.5246 147.084 31.168 143.68 29.9849 139.812L29.9759 139.816C28.8796 136.226 28.8437 132.269 29.8307 128.431C31.0035 123.85 33.64 119.385 37.6454 115.926L147.566 21.0024C152.831 16.4639 159.652 14.1946 166.399 14.1946C173.149 14.1946 179.971 16.4639 185.229 21.0024L259.102 85.0114C262.092 87.5995 262.417 92.1299 259.833 95.1238C257.247 98.1198 252.725 98.4472 249.736 95.8569L175.864 31.8505C173.337 29.6724 169.903 28.5797 166.4 28.5797C162.899 28.5797 159.458 29.6724 156.931 31.8505L47.0107 126.774C45.2816 128.268 44.1597 130.121 43.6867 131.97C43.3534 133.269 43.3428 134.533 43.6653 135.598L43.6568 135.6L43.6653 135.628C43.902 136.397 44.3801 137.087 45.0996 137.574C46.0361 138.21 47.4533 138.592 49.3985 138.592H69.371C73.3342 138.592 76.5509 141.814 76.5509 145.787V243.838C76.5509 246.98 77.842 249.848 79.915 251.925C81.9889 254.002 84.8489 255.295 87.9874 255.295H825.239V255.295Z" fill="#FF2200"/>
</g>
<path d="M153.144 157.677C162.411 157.677 171.055 160.057 179.076 164.816L172.185 177.921C164.396 173.709 157.777 171.602 152.327 171.602C148.199 171.602 146.135 173.046 146.135 175.932C146.135 177.493 147.264 178.799 149.522 179.853C151.781 180.906 154.546 181.862 157.816 182.72C161.087 183.579 164.338 184.651 167.569 185.939C170.801 187.225 173.546 189.273 175.805 192.081C178.064 194.89 179.194 198.323 179.194 202.379C179.194 208.698 176.74 213.632 171.833 217.181C166.927 220.731 160.542 222.505 152.677 222.505C141.54 222.505 132.117 219.541 124.409 213.613L130.833 200.741C138.23 205.968 145.667 208.582 153.144 208.582C157.738 208.582 160.036 207.138 160.036 204.252C160.036 202.613 158.926 201.247 156.707 200.155C154.487 199.063 151.781 198.088 148.587 197.231C145.395 196.373 142.202 195.3 139.009 194.013C135.816 192.725 133.11 190.716 130.891 187.986C128.671 185.255 127.562 181.823 127.562 177.689C127.562 171.369 129.936 166.454 134.687 162.943C139.438 159.433 145.59 157.677 153.144 157.677Z" fill="#FF2200"/>
<path d="M246.358 158.614V221.687H226.149V211.273C221.866 218.761 215.053 222.505 205.708 222.505C198.855 222.505 193.384 220.322 189.295 215.953C185.207 211.584 183.163 205.734 183.163 198.4V158.614H203.372V192.667C203.372 196.412 204.325 199.357 206.233 201.503C208.141 203.647 210.691 204.719 213.884 204.719C217.699 204.642 220.698 203.219 222.878 200.45C225.059 197.68 226.149 194.11 226.149 189.741V158.614H246.358Z" fill="#FF2200"/>
<path d="M298.221 157.677C305.151 157.677 310.719 159.881 314.925 164.289C319.13 168.697 321.232 174.567 321.232 181.9V221.687H301.14V187.517C301.14 183.851 300.147 180.946 298.161 178.8C296.175 176.654 293.469 175.581 290.043 175.581C286.461 175.581 283.521 176.752 281.223 179.092C278.927 181.432 277.583 184.514 277.194 188.337V221.687H256.985V158.614H277.194V168.911C281.632 161.578 288.641 157.834 298.221 157.677Z" fill="#FF2200"/>
<path d="M369.707 157.912C378.584 157.912 385.729 160.896 391.141 166.864C396.554 172.832 399.261 180.691 399.261 190.443C399.261 200.038 396.612 207.762 391.317 213.613C386.021 219.464 378.974 222.389 370.174 222.389C361.919 222.389 355.494 219.347 350.9 213.262V221.687H330.691V134.86H350.9V166.922C355.572 160.915 361.841 157.912 369.707 157.912ZM364.801 206.358C369.005 206.358 372.412 204.817 375.02 201.735C377.629 198.654 378.934 194.695 378.934 189.857C378.934 185.021 377.629 181.081 375.02 178.04C372.412 174.997 369.005 173.475 364.801 173.475C360.751 173.475 357.422 174.997 354.813 178.04C352.204 181.081 350.9 185.021 350.9 189.857C350.9 194.772 352.184 198.751 354.753 201.794C357.324 204.837 360.672 206.358 364.801 206.358Z" fill="#FF2200"/>
<path d="M445.866 157.677C452.796 157.677 458.364 159.881 462.57 164.289C466.775 168.697 468.877 174.567 468.877 181.9V221.687H448.785V187.517C448.785 183.851 447.792 180.946 445.806 178.8C443.82 176.654 441.114 175.581 437.688 175.581C434.106 175.581 431.166 176.752 428.868 179.092C426.572 181.432 425.228 184.514 424.839 188.337V221.687H404.63V158.614H424.839V168.911C429.277 161.578 436.286 157.834 445.866 157.677Z" fill="#FF2200"/>
<path d="M517.353 157.912C526.23 157.912 533.375 160.896 538.787 166.864C544.199 172.832 546.906 180.691 546.906 190.443C546.906 200.038 544.258 207.762 538.963 213.613C533.667 219.464 526.619 222.389 517.819 222.389C509.565 222.389 503.14 219.347 498.545 213.262V221.687H478.336V134.86H498.545V166.922C503.218 160.915 509.487 157.912 517.353 157.912ZM512.446 206.358C516.651 206.358 520.058 204.817 522.666 201.735C525.275 198.654 526.579 194.695 526.579 189.857C526.579 185.021 525.275 181.081 522.666 178.04C520.058 174.997 516.651 173.475 512.446 173.475C508.397 173.475 505.068 174.997 502.459 178.04C499.85 181.081 498.545 185.021 498.545 189.857C498.545 194.772 499.829 198.751 502.399 201.794C504.969 204.837 508.318 206.358 512.446 206.358Z" fill="#FF2200"/>
<path d="M169.928 102.916L170.191 115.553H158.892L159.153 102.916L148.38 109.365L142.728 99.6259L153.635 93.4387L142.728 87.5152L148.38 77.3785L159.023 83.9611L158.892 71.4567H170.191L170.06 83.9611L180.835 77.6421L186.485 87.5152L175.317 93.4387L186.485 99.6259L180.835 109.629L169.928 102.916Z" fill="#FF2200"/>
</svg>
